<mxfile host="app.diagrams.net" agent="Mozilla/5.0 (Windows NT 10.0; Win64; x64) AppleWebKit/537.36 (KHTML, like Gecko) Chrome/131.0.0.0 Safari/537.36" version="26.0.6" pages="2">
  <diagram name="Sayfa -1" id="blSwOCHyRI3olV-TpO9L">
    <mxGraphModel dx="1434" dy="772" grid="1" gridSize="10" guides="1" tooltips="1" connect="1" arrows="1" fold="1" page="1" pageScale="1" pageWidth="827" pageHeight="1169" math="0" shadow="0">
      <root>
        <mxCell id="0" />
        <mxCell id="1" parent="0" />
        <mxCell id="BlF4iYClrxu2RZd5_hX1-1" value="IoT Device" style="shape=umlActor;verticalLabelPosition=bottom;verticalAlign=top;html=1;outlineConnect=0;" vertex="1" parent="1">
          <mxGeometry x="1010" y="370" width="30" height="60" as="geometry" />
        </mxCell>
        <mxCell id="BlF4iYClrxu2RZd5_hX1-5" value="Kural Belirle" style="ellipse;whiteSpace=wrap;html=1;" vertex="1" parent="1">
          <mxGeometry x="220" y="285" width="140" height="70" as="geometry" />
        </mxCell>
        <mxCell id="BlF4iYClrxu2RZd5_hX1-6" value="Geçmiş verileri görüntüle" style="ellipse;whiteSpace=wrap;html=1;" vertex="1" parent="1">
          <mxGeometry x="240" y="420" width="140" height="70" as="geometry" />
        </mxCell>
        <mxCell id="BlF4iYClrxu2RZd5_hX1-7" value="Verileri gerçek zamanlı görüntüle" style="ellipse;whiteSpace=wrap;html=1;" vertex="1" parent="1">
          <mxGeometry x="250" y="549.5" width="140" height="70" as="geometry" />
        </mxCell>
        <mxCell id="BlF4iYClrxu2RZd5_hX1-8" value="Verileri sensor-network veritabanından çek" style="ellipse;whiteSpace=wrap;html=1;" vertex="1" parent="1">
          <mxGeometry x="460" y="420" width="140" height="70" as="geometry" />
        </mxCell>
        <mxCell id="BlF4iYClrxu2RZd5_hX1-9" value="Veritabanına kural yaz" style="ellipse;whiteSpace=wrap;html=1;" vertex="1" parent="1">
          <mxGeometry x="430" y="260" width="140" height="70" as="geometry" />
        </mxCell>
        <mxCell id="BlF4iYClrxu2RZd5_hX1-10" value="Gerçek zamanlı verileri grafiksel olarak görüntüle" style="ellipse;whiteSpace=wrap;html=1;" vertex="1" parent="1">
          <mxGeometry x="460" y="580" width="140" height="70" as="geometry" />
        </mxCell>
        <mxCell id="BlF4iYClrxu2RZd5_hX1-12" value="&amp;lt;&amp;lt;extend&amp;gt;&amp;gt;" style="endArrow=open;endSize=12;dashed=1;html=1;rounded=0;entryX=1;entryY=1;entryDx=0;entryDy=0;exitX=0;exitY=0.5;exitDx=0;exitDy=0;" edge="1" parent="1" source="BlF4iYClrxu2RZd5_hX1-10" target="BlF4iYClrxu2RZd5_hX1-7">
          <mxGeometry x="-0.003" width="160" relative="1" as="geometry">
            <mxPoint x="110" y="680" as="sourcePoint" />
            <mxPoint x="270" y="680" as="targetPoint" />
            <mxPoint as="offset" />
          </mxGeometry>
        </mxCell>
        <mxCell id="BlF4iYClrxu2RZd5_hX1-13" value="&amp;lt;&amp;lt;include&amp;gt;&amp;gt;" style="endArrow=open;endSize=12;dashed=1;html=1;rounded=0;entryX=0;entryY=0.5;entryDx=0;entryDy=0;exitX=1;exitY=0.5;exitDx=0;exitDy=0;" edge="1" parent="1" source="BlF4iYClrxu2RZd5_hX1-6" target="BlF4iYClrxu2RZd5_hX1-8">
          <mxGeometry width="160" relative="1" as="geometry">
            <mxPoint x="399" y="609" as="sourcePoint" />
            <mxPoint x="493" y="638" as="targetPoint" />
          </mxGeometry>
        </mxCell>
        <mxCell id="BlF4iYClrxu2RZd5_hX1-15" value="&amp;lt;&amp;lt;include&amp;gt;&amp;gt;" style="endArrow=open;endSize=12;dashed=1;html=1;rounded=0;entryX=0;entryY=0.643;entryDx=0;entryDy=0;exitX=1;exitY=0.5;exitDx=0;exitDy=0;entryPerimeter=0;" edge="1" parent="1" source="BlF4iYClrxu2RZd5_hX1-5" target="BlF4iYClrxu2RZd5_hX1-9">
          <mxGeometry x="-0.0938" width="160" relative="1" as="geometry">
            <mxPoint x="360" y="340" as="sourcePoint" />
            <mxPoint x="456" y="310" as="targetPoint" />
            <mxPoint as="offset" />
          </mxGeometry>
        </mxCell>
        <mxCell id="BlF4iYClrxu2RZd5_hX1-24" value="" style="endArrow=none;endSize=12;html=1;rounded=0;entryX=0;entryY=1;entryDx=0;entryDy=0;endFill=0;" edge="1" parent="1" target="BlF4iYClrxu2RZd5_hX1-5">
          <mxGeometry x="-0.0938" width="160" relative="1" as="geometry">
            <mxPoint x="160" y="440" as="sourcePoint" />
            <mxPoint x="260" y="385" as="targetPoint" />
            <mxPoint as="offset" />
          </mxGeometry>
        </mxCell>
        <mxCell id="BlF4iYClrxu2RZd5_hX1-25" value="Kullanıcı&lt;div&gt;&lt;br&gt;&lt;/div&gt;" style="shape=umlActor;verticalLabelPosition=bottom;verticalAlign=top;html=1;outlineConnect=0;" vertex="1" parent="1">
          <mxGeometry x="130" y="450" width="30" height="60" as="geometry" />
        </mxCell>
        <mxCell id="BlF4iYClrxu2RZd5_hX1-27" value="Verileri gönder" style="ellipse;whiteSpace=wrap;html=1;" vertex="1" parent="1">
          <mxGeometry x="830" y="410" width="140" height="70" as="geometry" />
        </mxCell>
        <mxCell id="BlF4iYClrxu2RZd5_hX1-28" value="" style="endArrow=none;endSize=12;html=1;rounded=0;endFill=0;" edge="1" parent="1">
          <mxGeometry x="-0.0938" width="160" relative="1" as="geometry">
            <mxPoint x="184" y="464.5" as="sourcePoint" />
            <mxPoint x="240" y="460" as="targetPoint" />
            <mxPoint as="offset" />
          </mxGeometry>
        </mxCell>
        <mxCell id="BlF4iYClrxu2RZd5_hX1-29" value="" style="endArrow=none;endSize=12;html=1;rounded=0;endFill=0;entryX=0.036;entryY=0.35;entryDx=0;entryDy=0;entryPerimeter=0;" edge="1" parent="1" target="BlF4iYClrxu2RZd5_hX1-7">
          <mxGeometry x="-0.0938" width="160" relative="1" as="geometry">
            <mxPoint x="180" y="500" as="sourcePoint" />
            <mxPoint x="284" y="474.5" as="targetPoint" />
            <mxPoint as="offset" />
          </mxGeometry>
        </mxCell>
        <mxCell id="BlF4iYClrxu2RZd5_hX1-30" value="Verileri veritabanına kaydet" style="ellipse;whiteSpace=wrap;html=1;" vertex="1" parent="1">
          <mxGeometry x="620" y="410" width="140" height="70" as="geometry" />
        </mxCell>
        <mxCell id="BlF4iYClrxu2RZd5_hX1-31" value="Verileri kontrol et" style="ellipse;whiteSpace=wrap;html=1;" vertex="1" parent="1">
          <mxGeometry x="590" y="260" width="140" height="70" as="geometry" />
        </mxCell>
        <mxCell id="BlF4iYClrxu2RZd5_hX1-32" value="Verileri gerçek zamanlı olarak aktar" style="ellipse;whiteSpace=wrap;html=1;" vertex="1" parent="1">
          <mxGeometry x="620" y="550" width="140" height="70" as="geometry" />
        </mxCell>
        <mxCell id="BlF4iYClrxu2RZd5_hX1-34" value="" style="endArrow=none;endSize=12;html=1;rounded=0;endFill=0;" edge="1" parent="1" target="BlF4iYClrxu2RZd5_hX1-1">
          <mxGeometry x="-0.0938" width="160" relative="1" as="geometry">
            <mxPoint x="920" y="410" as="sourcePoint" />
            <mxPoint x="231" y="330" as="targetPoint" />
            <mxPoint as="offset" />
          </mxGeometry>
        </mxCell>
        <mxCell id="BlF4iYClrxu2RZd5_hX1-36" value="&amp;lt;&amp;lt;include&amp;gt;&amp;gt;" style="endArrow=open;endSize=12;dashed=1;html=1;rounded=0;entryX=1;entryY=0;entryDx=0;entryDy=0;exitX=0;exitY=0.5;exitDx=0;exitDy=0;" edge="1" parent="1" source="BlF4iYClrxu2RZd5_hX1-27" target="BlF4iYClrxu2RZd5_hX1-30">
          <mxGeometry width="160" relative="1" as="geometry">
            <mxPoint x="424" y="475" as="sourcePoint" />
            <mxPoint x="510" y="465" as="targetPoint" />
          </mxGeometry>
        </mxCell>
        <mxCell id="BlF4iYClrxu2RZd5_hX1-37" value="&amp;lt;&amp;lt;include&amp;gt;&amp;gt;" style="endArrow=open;endSize=12;dashed=1;html=1;rounded=0;entryX=1.007;entryY=0.414;entryDx=0;entryDy=0;exitX=0.5;exitY=1;exitDx=0;exitDy=0;entryPerimeter=0;" edge="1" parent="1" source="BlF4iYClrxu2RZd5_hX1-27" target="BlF4iYClrxu2RZd5_hX1-32">
          <mxGeometry width="160" relative="1" as="geometry">
            <mxPoint x="830" y="455" as="sourcePoint" />
            <mxPoint x="769" y="490" as="targetPoint" />
          </mxGeometry>
        </mxCell>
        <mxCell id="BlF4iYClrxu2RZd5_hX1-38" value="&amp;lt;&amp;lt;include&amp;gt;&amp;gt;" style="endArrow=open;endSize=12;dashed=1;html=1;rounded=0;entryX=1.014;entryY=0.629;entryDx=0;entryDy=0;exitX=0.421;exitY=-0.014;exitDx=0;exitDy=0;entryPerimeter=0;exitPerimeter=0;" edge="1" parent="1" source="BlF4iYClrxu2RZd5_hX1-27" target="BlF4iYClrxu2RZd5_hX1-31">
          <mxGeometry width="160" relative="1" as="geometry">
            <mxPoint x="900" y="490" as="sourcePoint" />
            <mxPoint x="850" y="580" as="targetPoint" />
          </mxGeometry>
        </mxCell>
      </root>
    </mxGraphModel>
  </diagram>
  <diagram id="YIw-uuIoJ6dbREa9nIQ0" name="Sayfa -2">
    <mxGraphModel dx="1434" dy="772" grid="1" gridSize="10" guides="1" tooltips="1" connect="1" arrows="1" fold="1" page="1" pageScale="1" pageWidth="827" pageHeight="1169" math="0" shadow="0">
      <root>
        <mxCell id="0" />
        <mxCell id="1" parent="0" />
      </root>
    </mxGraphModel>
  </diagram>
</mxfile>
